<?xml version="1.0" encoding="utf-8"?>
<svg version="1.0" xmlns="http://www.w3.org/2000/svg" width="176.000000pt" height="180.000000pt" viewBox="0 0 176.000000 180.000000" preserveAspectRatio="xMidYMid meet">
  <g transform="matrix(0.1, 0, 0, -0.1, -2.8, 180.000003)" fill="#000000" stroke="none">
    <path d="M663 1746 c-38 -14 -47 -22 -39 -34 9 -14 80 13 84 32 4 18 0 18 -45 2z" style="fill: rgb(55, 175, 225);"/>
    <path d="M780 1699 l0 -60 78 6 c56 5 96 2 147 -10 128 -30 119 -31 138 10 21 43 21 42 2 49 -10 3 -20 -5 -30 -24 -28 -53 -44 -35 -20 23 12 28 -30 21 -43 -8 -6 -14 -19 -25 -27 -25 -14 0 -14 3 0 30 9 18 11 31 5 32 -5 0 -15 1 -20 2 -6 1 -16 -10 -23 -22 -11 -22 -19 -24 -90 -25 l-77 -2 0 43 c0 35 -3 42 -20 42 -18 0 -20 -7 -20 -61z" style="fill: rgb(55, 175, 225);"/>
    <path d="M719 1723 c-1 -5 0 -20 1 -34 1 -22 -5 -29 -31 -38 -48 -16 -59 -14 -59 14 0 18 -5 25 -20 25 -17 0 -20 -7 -20 -40 0 -26 5 -43 14 -46 19 -7 133 25 146 42 15 17 2 84 -16 84 -8 0 -14 -3 -15 -7z" style="fill: rgb(55, 175, 225);"/>
    <path d="M1171 1644 c-25 -37 -30 -49 -19 -55 7 -5 15 -9 18 -8 12 0 70 90 65 99 -12 20 -32 9 -64 -36z" style="fill: rgb(55, 175, 225);"/>
    <path d="M463 1622 c-47 -30 -50 -39 -28 -83 16 -30 23 -30 58 -1 9 8 20 12 25 7 4 -4 1 -10 -5 -12 -17 -6 -17 -33 0 -33 8 0 22 9 32 20 17 18 16 21 -6 75 -12 30 -25 55 -28 55 -3 0 -25 -13 -48 -28z m37 -37 c0 -16 -27 -32 -37 -22 -3 4 -3 13 0 22 8 20 37 20 37 0z" style="fill: rgb(55, 175, 225);"/>
    <path d="M1231 1593 c-16 -19 -34 -33 -39 -29 -5 3 -15 -1 -22 -9 -10 -12 -7 -17 16 -26 27 -10 32 -8 67 31 41 47 44 55 22 63 -9 4 -26 -8 -44 -30z" style="fill: rgb(55, 175, 225);"/>
    <path d="M360 1585 c-10 -12 -7 -24 15 -62 35 -61 32 -58 49 -44 13 11 12 18 -9 52 -14 21 -25 43 -25 48 0 18 -18 21 -30 6z" style="fill: rgb(55, 175, 225);"/>
    <path d="M1314 1589 c-4 -8 4 -22 22 -35 22 -19 26 -26 16 -36 -9 -9 -18 -6 -42 17 -24 23 -33 26 -42 17 -10 -10 -6 -18 22 -39 19 -15 59 -50 88 -80 29 -29 57 -53 62 -53 5 0 29 10 54 22 38 18 43 24 33 39 -11 17 -13 17 -44 -2 -32 -20 -63 -20 -63 -1 0 4 16 16 37 26 33 16 35 19 20 33 -14 14 -18 14 -45 -6 -17 -11 -35 -21 -40 -21 -22 0 -23 22 -2 37 21 15 21 16 3 35 -34 38 -71 59 -79 47z" style="fill: rgb(55, 175, 225);"/>
    <path d="M847 1583 c-11 -10 -8 -51 3 -58 6 -4 10 8 10 29 0 37 -2 41 -13 29z" style="fill: rgb(55, 175, 225);"/>
    <path d="M928 1557 c-3 -15 -1 -30 3 -33 5 -3 9 2 9 10 0 9 4 16 10 16 5 0 7 -7 4 -15 -4 -8 -1 -15 5 -15 6 0 11 9 11 20 0 11 -6 20 -14 20 -8 0 -16 6 -19 13 -2 6 -6 0 -9 -16z" style="fill: rgb(55, 175, 225);"/>
    <path d="M879 1568 c-1 -2 -3 -15 -5 -30 -2 -22 1 -28 17 -28 20 0 26 15 9 25 -5 3 -10 12 -10 18 0 7 4 6 10 -3 8 -13 10 -12 10 3 0 13 -26 26 -31 15z" style="fill: rgb(55, 175, 225);"/>
    <path d="M980 1535 c0 -33 25 -33 26 0 1 15 -3 25 -12 25 -8 0 -14 -10 -14 -25z" style="fill: rgb(55, 175, 225);"/>
    <path d="M304 1535 c-3 -8 4 -26 15 -41 12 -15 21 -33 21 -41 0 -24 -29 -26 -48 -3 -16 20 -19 21 -31 6 -12 -14 -11 -20 8 -40 21 -22 21 -23 3 -40 -17 -15 -20 -15 -32 -1 -21 25 -37 17 -64 -29 -30 -52 -30 -52 -11 -60 10 -3 21 6 32 29 13 25 22 32 32 26 11 -7 10 -15 -8 -45 -21 -33 -21 -56 -2 -56 5 0 22 26 39 59 18 32 52 78 77 102 25 24 45 51 45 59 0 20 -47 90 -61 90 -5 0 -12 -7 -15 -15z" style="fill: rgb(55, 175, 225);"/>
    <path d="M658 1545 c-7 -13 16 -68 24 -59 4 3 4 13 1 22 -3 13 -1 13 11 -2 12 -14 16 -16 16 -5 0 22 -17 42 -28 35 -6 -3 -12 -1 -14 6 -3 7 -7 8 -10 3z" style="fill: rgb(55, 175, 225);"/>
    <path d="M720 1531 c0 -23 15 -35 31 -25 8 4 7 9 -2 15 -10 6 -11 9 -1 9 6 0 12 5 12 10 0 6 -9 10 -20 10 -13 0 -20 -7 -20 -19z" style="fill: rgb(55, 175, 225);"/>
    <path d="M1054 1525 c-7 -18 3 -35 21 -35 21 0 28 19 15 35 -16 19 -29 19 -36 0z" style="fill: rgb(55, 175, 225);"/>
    <path d="M1116 1514 c-3 -9 -6 -23 -6 -32 0 -13 5 -11 20 8 11 14 20 28 20 33 0 14 -28 7 -34 -9z" style="fill: rgb(55, 175, 225);"/>
    <path d="M235 1484 c-36 -48 -19 -63 23 -20 27 28 30 35 18 45 -11 9 -19 4 -41 -25z" style="fill: rgb(55, 175, 225);"/>
    <path d="M620 1512 c0 -15 28 -47 36 -40 4 4 2 14 -4 21 -7 8 -9 17 -5 20 3 4 -1 7 -10 7 -9 0 -17 -4 -17 -8z" style="fill: rgb(55, 175, 225);"/>
    <path d="M731 1484 c-66 -18 -157 -65 -208 -109 -38 -32 -63 -36 -63 -9 0 18 -14 18 -30 -1 -11 -13 -9 -20 9 -39 21 -22 21 -23 2 -40 -28 -25 -87 -150 -105 -222 -17 -66 -20 -206 -6 -239 6 -13 7 8 3 56 -25 332 225 609 549 609 311 0 568 -283 544 -600 -4 -58 -3 -69 5 -50 6 15 9 63 6 115 -5 100 -34 196 -85 283 l-31 52 24 0 c13 0 27 5 30 10 3 6 0 10 -7 10 -8 0 -19 14 -25 30 -13 34 -28 38 -44 12 -11 -18 -16 -16 -76 30 -80 60 -126 84 -200 103 -72 19 -221 18 -292 -1z m603 -143 c9 -14 -4 -41 -19 -41 -21 0 -28 19 -15 35 14 17 26 19 34 6z" style="fill: rgb(55, 175, 225);"/>
    <path d="M564 1477 c-3 -9 -2 -23 3 -32 8 -13 12 -14 20 -3 8 10 8 18 -3 32 -12 17 -14 17 -20 3z" style="fill: rgb(55, 175, 225);"/>
    <path d="M1173 1464 c-8 -21 13 -42 28 -27 13 13 5 43 -11 43 -6 0 -13 -7 -17 -16z" style="fill: rgb(55, 175, 225);"/>
    <path d="M1220 1425 c0 -28 12 -32 30 -10 11 13 10 14 -4 9 -12 -5 -15 -2 -10 10 3 9 1 16 -5 16 -6 0 -11 -11 -11 -25z" style="fill: rgb(55, 175, 225);"/>
    <path d="M471 1406 c-14 -17 -7 -36 14 -36 21 0 26 15 12 34 -12 16 -14 16 -26 2z" style="fill: rgb(55, 175, 225);"/>
    <path d="M1257 1396 c-8 -19 15 -37 32 -26 17 10 7 40 -13 40 -7 0 -16 -6 -19 -14z" style="fill: rgb(55, 175, 225);"/>
    <path d="M392 1318 c-1 -44 7 -52 29 -32 17 15 17 18 1 40 -23 31 -29 30 -30 -8z" style="fill: rgb(55, 175, 225);"/>
    <path d="M1505 1316 c-22 -9 -35 -10 -47 -2 -9 6 -20 7 -23 4 -11 -11 15 -48 33 -48 32 0 97 28 97 41 0 19 -24 21 -60 5z" style="fill: rgb(55, 175, 225);"/>
    <path d="M786 1307 c-17 -12 -16 -14 8 -25 28 -13 37 -38 10 -28 -14 5 -15 4 -4 -9 7 -9 22 -14 33 -13 18 3 20 -3 22 -50 2 -64 11 -74 35 -43 18 24 112 57 131 45 5 -3 -2 -22 -16 -42 -24 -35 -25 -43 -25 -187 0 -149 0 -152 26 -183 19 -22 36 -32 55 -32 28 0 40 15 19 22 -5 2 1 16 14 31 14 16 22 35 19 43 -6 17 32 20 42 3 18 -29 -75 -139 -110 -130 -5 2 -25 4 -44 6 -36 4 -80 40 -111 92 -18 30 -18 33 -2 34 9 0 0 7 -21 16 -31 13 -46 30 -94 117 -32 55 -70 114 -86 131 -17 16 -36 48 -44 71 -8 23 -23 50 -34 60 -22 19 -25 44 -6 45 6 0 30 3 51 5 31 3 45 -1 63 -18 13 -12 23 -26 23 -31 0 -15 91 -139 97 -133 4 3 -16 51 -43 106 l-49 99 -97 1 c-97 0 -128 -5 -128 -21 0 -11 50 -64 61 -64 7 0 32 -35 73 -102 4 -7 3 -13 -2 -13 -6 0 -23 20 -39 45 -27 44 -54 64 -33 26 5 -11 10 -71 11 -133 1 -117 13 -173 39 -173 21 0 19 -29 -3 -33 -28 -6 -47 17 -47 55 l0 35 -26 -31 c-28 -33 -26 -57 5 -86 16 -13 30 -15 75 -10 74 10 87 30 49 75 -24 29 -27 42 -31 126 -2 52 0 94 5 94 4 0 21 -26 36 -58 56 -114 119 -212 135 -212 10 -1 27 -22 42 -52 36 -75 66 -93 153 -93 85 0 125 22 157 85 27 52 25 74 -6 99 -41 32 -62 27 -80 -19 -13 -33 -54 -70 -76 -70 -2 0 -1 78 1 172 2 114 7 175 14 180 19 12 45 -21 57 -71 7 -29 19 -52 33 -61 19 -12 21 -11 9 2 -10 12 -41 100 -42 117 0 2 9 -4 19 -13 11 -10 25 -40 31 -67 10 -41 16 -49 35 -49 13 0 26 7 29 16 11 29 7 189 -6 202 -15 15 -70 16 -84 2 -8 -8 -19 -8 -38 0 -42 16 -98 12 -133 -10 -18 -10 -34 -16 -36 -12 -8 13 12 51 32 62 27 14 27 35 -1 54 -28 20 -127 21 -152 3z m114 -37 c0 -4 -6 -13 -14 -19 -17 -14 -31 2 -22 24 5 15 36 10 36 -5z m205 -100 c12 10 21 10 40 2 20 -9 25 -19 25 -48 0 -39 -1 -39 -54 9 -11 9 -29 17 -41 17 -27 0 -35 8 -28 26 5 13 8 12 24 -2 15 -14 21 -15 34 -4z" style="fill: rgb(55, 175, 225);"/>
    <path d="M359 1264 c-10 -12 -10 -18 3 -30 13 -13 16 -13 29 2 12 16 12 17 -3 11 -10 -3 -18 -2 -18 2 0 5 5 11 12 13 8 3 9 6 1 11 -6 4 -16 0 -24 -9z" style="fill: rgb(55, 175, 225);"/>
    <path d="M1540 1271 c-25 -7 -27 -15 -14 -61 5 -21 4 -23 -7 -12 -7 6 -19 12 -26 12 -11 0 -10 -6 2 -31 12 -21 21 -28 34 -24 14 4 20 -4 29 -46 7 -28 12 -65 12 -84 0 -41 13 -51 73 -57 41 -5 47 -3 47 13 0 13 -7 19 -22 19 -39 0 -68 12 -68 26 0 9 11 14 31 14 44 0 37 34 -9 38 -18 2 -32 9 -32 16 0 8 -3 28 -6 45 -6 28 -4 31 20 31 31 0 32 5 6 64 -20 47 -25 50 -70 37z m44 -47 c4 -9 4 -19 2 -22 -10 -9 -36 8 -36 23 0 20 26 19 34 -1z" style="fill: rgb(55, 175, 225);"/>
    <path d="M137 1253 c-15 -15 -5 -30 34 -52 22 -13 38 -26 35 -29 -3 -3 -1 -11 5 -19 9 -10 7 -13 -6 -13 -12 0 -16 -6 -12 -20 3 -11 2 -20 -3 -20 -14 0 -18 -39 -4 -44 9 -4 17 8 25 37 6 23 14 47 19 52 27 35 20 52 -30 83 -57 36 -54 34 -63 25z" style="fill: rgb(55, 175, 225);"/>
    <path d="M1389 1240 c-18 -15 -20 -19 -8 -20 9 0 24 9 34 20 23 26 4 26 -26 0z" style="fill: rgb(55, 175, 225);"/>
    <path d="M320 1231 c0 -5 11 -16 25 -25 29 -19 34 -7 7 17 -21 19 -32 22 -32 8z" style="fill: rgb(55, 175, 225);"/>
    <path d="M323 1188 c4 -10 2 -18 -4 -18 -6 0 -9 -7 -5 -15 3 -8 1 -15 -4 -15 -6 0 -10 -4 -10 -10 0 -5 9 -10 21 -10 15 0 19 5 15 15 -3 8 -1 15 4 15 16 0 11 26 -7 41 -15 12 -16 12 -10 -3z" style="fill: rgb(55, 175, 225);"/>
    <path d="M96 1174 c-8 -22 -9 -20 25 -34 22 -9 28 -17 23 -29 -3 -9 -9 -24 -11 -34 -4 -14 -12 -16 -39 -11 -29 5 -34 4 -34 -14 0 -14 9 -21 30 -25 28 -6 30 -9 30 -53 l0 -46 -35 6 c-31 6 -35 4 -35 -13 0 -15 10 -23 41 -31 23 -6 45 -8 50 -3 4 4 9 44 10 88 1 44 8 97 16 119 18 52 17 54 -19 76 -40 24 -44 24 -52 4z" style="fill: rgb(55, 175, 225);"/>
    <path d="M1421 1176 c-13 -15 -6 -56 8 -56 5 0 15 8 22 17 12 15 12 16 -3 11 -21 -9 -31 2 -16 19 6 7 9 16 6 18 -3 3 -11 -1 -17 -9z" style="fill: rgb(55, 175, 225);"/>
    <path d="M1630 1138 c0 -16 19 -38 33 -38 4 0 7 10 5 22 -3 25 -38 39 -38 16z" style="fill: rgb(55, 175, 225);"/>
    <path d="M1445 1106 c-20 -15 -19 -15 5 -16 23 -1 24 -2 8 -14 -24 -18 -23 -26 5 -26 20 -1 21 -2 5 -14 -22 -16 -23 -26 -3 -26 23 0 27 20 13 68 -12 41 -14 42 -33 28z" style="fill: rgb(55, 175, 225);"/>
    <path d="M291 1096 c-15 -17 -11 -48 6 -53 20 -7 34 32 20 52 -12 15 -14 15 -26 1z" style="fill: rgb(55, 175, 225);"/>
    <path d="M887 1086 c-5 -11 -1 -29 8 -42 20 -32 26 -30 15 4 -5 15 -10 34 -12 41 -3 12 -6 11 -11 -3z" style="fill: rgb(55, 175, 225);"/>
    <path d="M432 1065 c-15 -32 -15 -62 -2 -70 12 -7 30 36 30 71 0 31 -14 31 -28 -1z" style="fill: rgb(55, 175, 225);"/>
    <path d="M1300 1063 c0 -37 10 -73 20 -73 16 0 20 34 9 67 -13 40 -29 43 -29 6z" style="fill: rgb(55, 175, 225);"/>
    <path d="M857 1046 c4 -22 43 -69 43 -53 0 7 -41 77 -45 77 -1 0 0 -11 2 -24z" style="fill: rgb(55, 175, 225);"/>
    <path d="M270 1017 c0 -9 -3 -22 -6 -31 -4 -12 0 -16 15 -16 12 0 21 5 21 10 0 6 -4 10 -10 10 -5 0 -10 5 -10 11 0 6 7 8 16 5 10 -4 14 -1 12 6 -7 19 -38 22 -38 5z" style="fill: rgb(55, 175, 225);"/>
    <path d="M384 971 c6 -55 38 -93 60 -71 23 23 50 93 34 88 -7 -2 -20 -18 -28 -36 -8 -17 -17 -32 -20 -32 -3 0 -15 22 -27 48 l-23 47 4 -44z" style="fill: rgb(55, 175, 225);"/>
    <path d="M1357 983 c-9 -18 -17 -39 -17 -48 0 -24 -14 -17 -31 17 -19 39 -44 52 -34 17 10 -34 40 -74 56 -74 18 0 51 68 47 97 -3 22 -5 21 -21 -9z" style="fill: rgb(55, 175, 225);"/>
    <path d="M1482 969 c-8 -12 -11 -24 -7 -27 3 -3 13 2 22 11 11 11 14 20 7 27 -6 6 -14 2 -22 -11z" style="fill: rgb(55, 175, 225);"/>
    <path d="M160 961 c0 -10 7 -21 15 -25 11 -4 15 1 15 19 0 16 -6 25 -15 25 -8 0 -15 -9 -15 -19z" style="fill: rgb(55, 175, 225);"/>
    <path d="M1570 941 c0 -22 17 -29 80 -34 25 -1 35 2 38 14 2 12 -8 18 -40 22 -24 3 -52 9 -61 13 -13 4 -17 1 -17 -15z" style="fill: rgb(55, 175, 225);"/>
    <path d="M240 937 c0 -7 6 -19 13 -26 10 -11 10 -14 0 -18 -24 -9 -13 -23 17 -23 17 0 30 5 30 10 0 6 -7 10 -17 10 -15 0 -15 1 0 18 10 10 17 25 17 33 -1 11 -4 10 -14 -3 -16 -22 -26 -23 -26 -3 0 8 -4 15 -10 15 -5 0 -10 -6 -10 -13z" style="fill: rgb(55, 175, 225);"/>
    <path d="M1488 922 c-22 -4 -24 -22 -3 -22 20 0 19 -16 -1 -24 -8 -3 -13 -10 -9 -15 7 -12 32 -4 38 12 8 23 -8 53 -25 49z" style="fill: rgb(55, 175, 225);"/>
    <path d="M458 888 c-10 -20 -18 -42 -18 -49 0 -7 -12 6 -27 29 -30 46 -48 55 -38 20 11 -34 33 -66 55 -78 16 -9 22 -6 35 20 9 17 15 46 13 63 l-3 32 -17 -37z" style="fill: rgb(55, 175, 225);"/>
    <path d="M1277 890 c3 -19 12 -47 20 -62 12 -25 16 -27 34 -15 22 12 62 87 53 97 -8 7 -54 -52 -54 -67 0 -7 -4 -13 -10 -13 -5 0 -10 11 -10 24 0 13 -9 34 -20 47 l-20 24 7 -35z" style="fill: rgb(55, 175, 225);"/>
    <path d="M476 805 c-4 -20 -4 -40 -1 -45 13 -21 -11 -8 -39 20 -16 17 -33 30 -39 30 -16 0 28 -65 54 -77 32 -17 49 5 49 64 0 52 -15 57 -24 8z" style="fill: rgb(55, 175, 225);"/>
    <path d="M1257 814 c-2 -14 -1 -42 5 -60 9 -33 10 -33 39 -21 29 12 81 77 61 77 -5 0 -24 -13 -42 -30 -18 -16 -33 -30 -34 -30 -1 0 -2 16 -3 36 -1 46 -19 65 -26 28z" style="fill: rgb(55, 175, 225);"/>
    <path d="M35 773 c11 -78 70 -229 121 -311 58 -95 197 -233 285 -285 366 -214 814 -139 1087 184 94 111 172 278 197 422 l6 38 -72 -3 -72 -3 -13 -63 c-29 -142 -143 -317 -267 -409 -130 -97 -268 -143 -428 -143 -196 0 -357 68 -499 210 -98 97 -164 211 -196 338 l-18 72 -69 0 -69 0 7 -47z m85 -4 c0 -5 4 -8 9 -4 14 8 24 -32 12 -52 -6 -10 -11 -13 -11 -8 0 6 -5 3 -11 -5 -8 -11 -12 -12 -16 -2 -2 6 -10 9 -16 5 -6 -4 -8 0 -4 10 4 10 1 17 -6 18 -9 0 -9 2 0 5 7 3 9 12 6 21 -4 11 -2 14 5 9 7 -4 12 -2 12 3 0 6 5 11 10 11 6 0 10 -5 10 -11z m1556 -15 c-3 -8 0 -14 7 -15 9 0 9 -2 0 -5 -7 -3 -10 -11 -7 -18 3 -8 -3 -17 -13 -20 -10 -4 -19 -3 -21 3 -2 5 -9 8 -16 5 -15 -6 -24 21 -18 49 2 11 9 16 18 13 8 -3 14 -1 14 3 0 5 9 7 21 4 12 -3 18 -11 15 -19z m-1506 -100 c0 -14 -4 -23 -9 -20 -5 4 -11 1 -13 -5 -5 -16 -38 1 -38 21 0 17 15 26 48 29 7 0 12 -10 12 -25z m1464 13 c17 -12 17 -17 5 -51 -17 -46 -29 -57 -57 -49 -26 6 -28 27 -7 77 16 38 30 44 59 23z m-1434 -71 c0 -8 -4 -18 -10 -21 -5 -3 -15 -16 -21 -27 -11 -21 -11 -21 19 1 19 13 33 17 37 11 3 -5 -5 -15 -19 -22 -27 -12 -33 -23 -16 -33 13 -8 13 -25 0 -25 -13 0 -40 54 -40 80 0 11 -7 20 -15 20 -29 0 -15 19 18 23 17 2 35 5 40 5 4 1 7 -4 7 -12z m1372 -54 c24 -16 26 -21 15 -36 -21 -29 -56 -13 -55 24 1 35 4 36 40 12z m-42 -47 c7 -8 20 -15 28 -15 12 0 13 -3 5 -11 -9 -9 -18 -8 -37 5 -25 16 -35 36 -17 36 5 0 14 -7 21 -15z m-5 -56 c3 6 10 11 16 11 5 0 4 -9 -3 -20 -17 -26 -30 -25 -56 3 -28 30 -16 44 14 16 14 -13 24 -17 29 -10z m-1229 -11 c-6 -31 -6 -31 14 -13 27 24 26 7 -2 -22 -29 -31 -42 -29 -33 4 5 23 4 25 -10 13 -26 -21 -28 -4 -3 23 32 34 42 33 34 -5z m51 -54 c3 -8 -2 -23 -11 -32 -15 -15 -17 -15 -33 0 -13 14 -14 20 -3 32 16 20 39 20 47 0z m1113 1 c10 -12 10 -18 0 -30 -7 -8 -18 -15 -25 -15 -7 0 -15 -9 -18 -20 -10 -40 -73 -14 -65 27 3 19 48 32 48 14 0 -6 -7 -11 -15 -11 -17 0 -20 -16 -5 -25 13 -8 43 22 35 35 -10 16 2 40 18 40 8 0 20 -7 27 -15z m-1100 -50 c-9 -11 -9 -15 -1 -15 6 0 14 7 17 15 6 15 24 21 24 8 0 -5 -7 -16 -14 -26 -12 -15 -18 -16 -35 -7 -20 10 -20 12 -4 37 9 14 19 20 21 14 2 -6 -2 -18 -8 -26z m68 -25 c3 -7 0 -10 -6 -6 -6 3 -15 -2 -21 -11 -5 -10 -12 -15 -16 -11 -9 8 17 49 29 45 5 -2 12 -9 14 -17z m922 -29 c19 -46 -8 -71 -36 -33 -23 30 -16 57 17 61 4 1 12 -12 19 -28z m-860 14 c0 -8 -52 -56 -57 -51 -8 8 29 56 43 56 8 0 14 -2 14 -5z m814 -64 c-3 -3 -13 3 -21 14 -15 19 -15 19 -9 -6 5 -24 -6 -39 -30 -39 -4 0 -34 56 -34 65 0 16 19 1 33 -27 11 -21 15 -25 11 -10 -3 13 0 30 7 39 12 13 15 13 31 -7 10 -13 16 -26 12 -29z m-796 27 c14 -14 -2 -48 -23 -48 -19 0 -27 16 -20 40 7 22 25 26 43 8z m52 -29 c0 -5 -5 -9 -11 -9 -7 0 -18 -8 -25 -17 -16 -22 -19 -1 -4 27 10 19 40 18 40 -1z m54 5 c9 -3 16 -13 16 -21 0 -13 -3 -13 -15 -3 -10 9 -15 9 -15 1 0 -6 5 -11 10 -11 6 0 10 -9 10 -20 0 -13 -7 -20 -19 -20 -23 0 -47 25 -31 35 5 3 13 -1 16 -9 3 -9 10 -13 16 -10 5 3 1 12 -8 19 -10 7 -15 19 -11 29 7 18 9 19 31 10z m565 -66 c1 -5 -3 -8 -7 -8 -11 0 -32 67 -24 75 6 5 29 -46 31 -67z m41 51 c6 -11 9 -25 6 -32 -2 -7 -8 -2 -11 11 -10 30 -27 28 -19 -3 8 -31 -4 -33 -15 -2 -5 13 -5 27 1 35 15 17 26 15 38 -9z m-553 -24 c8 -9 12 -22 9 -30 -3 -8 -2 -15 3 -15 5 0 11 10 14 22 4 12 9 19 13 16 3 -4 3 -19 0 -33 -8 -33 -37 -30 -47 5 -7 24 -7 24 -8 3 -1 -33 -21 -28 -21 5 0 43 12 51 37 27z m483 -25 c0 -26 -31 -35 -37 -10 -8 29 -23 25 -23 -6 0 -14 -4 -23 -10 -19 -5 3 -10 17 -10 31 0 13 -5 24 -11 24 -7 0 -9 -12 -5 -35 5 -22 3 -35 -4 -35 -6 0 -13 14 -16 30 -4 17 -10 30 -15 30 -5 0 -9 5 -9 11 0 8 14 10 43 6 23 -3 49 -2 57 3 18 11 40 -6 40 -30z m-380 8 c0 -33 -14 -58 -31 -58 -10 0 -21 4 -24 10 -8 13 14 52 26 45 5 -4 9 -1 9 4 0 6 5 11 10 11 6 0 10 -6 10 -12z m23 -25 c-6 -41 -10 -49 -19 -41 -8 8 7 78 16 78 5 0 6 -17 3 -37z m174 17 c3 -11 9 -20 14 -20 5 0 9 -9 9 -20 0 -15 -7 -20 -29 -20 -29 0 -49 24 -30 35 5 4 7 11 4 16 -4 5 -3 14 0 19 10 16 27 11 32 -10z m-131 -11 c4 -8 9 -8 17 0 6 6 15 11 19 11 14 0 27 -44 16 -57 -10 -13 -38 -7 -38 9 0 5 5 6 12 2 7 -4 8 -3 4 4 -10 17 -26 15 -26 -3 0 -8 -9 -15 -20 -15 -14 0 -20 7 -20 23 0 35 21 50 36 26z" style="fill: rgb(55, 175, 225);"/>
    <path d="M194 804 c4 -9 11 -37 18 -63 53 -220 233 -409 463 -487 68 -23 97 -27 195 -28 116 0 161 8 260 46 144 56 284 183 357 323 36 69 73 178 73 214 0 7 -23 11 -59 11 l-60 0 -16 -57 c-54 -190 -219 -349 -410 -398 -75 -19 -203 -19 -275 0 -131 35 -253 122 -329 234 -38 56 -91 176 -91 205 0 13 -13 16 -66 16 -57 0 -65 -2 -60 -16z m109 -68 c16 -33 16 -41 5 -53 -8 -7 -21 -11 -29 -8 -16 6 -41 83 -32 98 11 18 39 0 56 -37z m1209 39 c10 -10 -14 -87 -29 -92 -8 -3 -21 1 -28 8 -28 29 28 112 57 84z m-52 -126 c25 -21 25 -21 2 -16 -17 4 -21 2 -13 -7 16 -19 2 -53 -40 -99 -22 -22 -39 -49 -39 -59 0 -10 -5 -18 -12 -18 -6 0 -8 3 -5 7 4 3 0 15 -10 25 -9 10 -13 21 -9 25 4 4 11 2 15 -5 6 -10 10 -10 20 2 9 11 9 15 0 18 -22 7 -1 41 22 35 16 -4 19 -2 14 15 -5 14 -1 21 14 25 25 6 26 12 5 27 -9 7 -12 18 -8 29 8 22 13 21 44 -4z m-1130 2 c0 -5 -7 -11 -15 -15 -17 -6 -20 -32 -5 -41 6 -4 17 -2 24 4 8 7 22 8 36 3 l23 -9 -23 -16 c-23 -16 -23 -17 -4 -39 10 -13 20 -25 22 -28 2 -2 7 2 13 10 8 13 10 13 19 0 5 -8 7 -24 3 -35 -5 -18 -4 -19 12 -5 17 14 17 13 10 -10 -8 -25 -8 -25 14 -6 24 22 28 10 7 -20 -14 -18 -15 -18 -46 11 -18 17 -45 47 -62 68 -26 32 -28 40 -17 54 13 15 12 15 -7 5 -37 -19 -72 36 -42 66 14 14 38 16 38 3z m984 -171 c37 -14 32 -33 -15 -64 -46 -31 -69 -28 -69 8 0 34 16 41 37 17 22 -27 33 -18 23 19 -10 34 -10 33 24 20z m-804 -17 c0 -15 -48 -68 -55 -61 -4 4 3 20 16 37 23 29 39 39 39 24z m10 -78 c0 -33 23 -32 46 2 11 17 19 23 22 15 2 -7 -1 -19 -8 -27 -9 -11 -4 -18 29 -34 45 -23 51 -25 51 -13 0 5 -10 13 -22 19 l-23 10 22 12 c20 10 23 9 29 -24 7 -41 19 -45 28 -10 4 14 11 23 16 20 5 -3 5 -18 -2 -36 -11 -33 -17 -33 -98 3 -25 12 -55 20 -67 19 -25 -1 -54 34 -46 55 9 23 23 16 23 -11z m700 -10 c11 -13 1 -20 -65 -51 -70 -32 -79 -34 -93 -20 -20 19 -8 34 13 16 8 -7 15 -10 15 -6 0 15 2 22 12 34 8 8 7 12 -3 12 -12 0 -12 2 0 9 10 6 19 3 31 -11 16 -20 18 -20 46 -4 21 12 23 15 7 11 -13 -4 -23 -2 -23 3 0 25 41 30 60 7z m-220 -50 c13 8 40 -12 40 -31 0 -8 -18 -15 -45 -20 -25 -3 -45 -11 -45 -18 0 -6 -5 -4 -10 4 -8 12 -12 12 -18 2 -7 -10 -19 -10 -60 -1 -40 10 -58 10 -77 1 -14 -7 -30 -12 -34 -12 -11 0 -31 47 -24 54 11 11 23 6 23 -9 0 -8 7 -15 15 -15 9 0 12 6 9 15 -8 19 10 19 26 0 16 -20 31 -19 23 1 -4 12 0 15 18 12 13 -2 23 -9 22 -16 -2 -6 6 -12 17 -12 11 0 20 7 20 15 0 8 5 15 10 15 6 0 10 -7 10 -16 0 -8 5 -12 10 -9 6 4 8 11 5 16 -4 5 -1 9 4 9 6 0 11 -4 11 -10 0 -5 4 -10 9 -10 4 0 6 12 3 28 -5 24 -3 25 11 14 9 -8 21 -11 27 -7z" style="fill: rgb(55, 175, 225);"/>
    <path d="M510 708 c0 -43 -2 -49 -12 -37 -7 9 -25 23 -40 32 -23 14 -28 15 -28 3 0 -19 57 -66 80 -66 21 0 33 44 24 90 -10 48 -24 35 -24 -22z" style="fill: rgb(55, 175, 225);"/>
    <path d="M1224 725 c-9 -50 2 -85 27 -85 22 0 79 51 79 70 0 13 -11 8 -56 -26 l-31 -23 4 43 c6 54 -13 72 -23 21z" style="fill: rgb(55, 175, 225);"/>
    <path d="M554 633 c5 -52 5 -53 -17 -39 -33 21 -67 29 -67 17 0 -16 61 -51 88 -51 19 0 22 5 22 43 0 24 -7 52 -16 63 -14 18 -15 15 -10 -33z" style="fill: rgb(55, 175, 225);"/>
    <path d="M1184 644 c-21 -50 -15 -78 17 -82 25 -3 97 44 85 55 -2 3 -25 -5 -51 -16 -42 -19 -46 -19 -40 -3 11 25 18 82 11 82 -4 0 -14 -16 -22 -36z" style="fill: rgb(55, 175, 225);"/>
    <path d="M611 588 c5 -17 13 -36 19 -42 18 -18 11 -26 -16 -16 -14 6 -37 10 -52 10 l-27 -1 24 -19 c24 -21 66 -26 90 -11 16 10 9 50 -16 87 -22 34 -33 30 -22 -8z" style="fill: rgb(55, 175, 225);"/>
    <path d="M1122 590 c-45 -72 -9 -113 67 -74 33 16 34 18 13 22 -13 2 -36 -1 -53 -7 -34 -12 -33 -13 -13 27 8 18 14 40 12 50 -3 13 -9 9 -26 -18z" style="fill: rgb(55, 175, 225);"/>
    <path d="M670 571 c0 -4 11 -25 25 -45 l24 -36 -28 0 c-16 0 -36 -3 -45 -6 -26 -10 -7 -24 33 -24 65 0 79 37 35 89 -25 30 -44 40 -44 22z" style="fill: rgb(55, 175, 225);"/>
    <path d="M1053 558 c-11 -13 -26 -33 -33 -46 -10 -20 -9 -26 7 -38 20 -15 89 -19 97 -5 8 12 -18 21 -55 21 l-30 0 19 28 c39 56 36 84 -5 40z" style="fill: rgb(55, 175, 225);"/>
    <path d="M758 460 c-26 -9 -51 -20 -55 -24 -9 -9 88 -2 127 8 22 6 22 5 -5 -10 -25 -15 -27 -19 -12 -22 11 -2 29 6 41 17 28 26 34 26 62 0 12 -11 30 -19 41 -16 14 3 12 6 -12 17 -16 7 -25 14 -18 17 7 2 21 0 32 -6 22 -12 84 -15 94 -4 4 3 -15 14 -42 23 -62 22 -189 22 -253 0z" style="fill: rgb(55, 175, 225);"/>
  </g>
</svg>